HIERARCHY
ROOT Hips
{
	OFFSET 0.000000 0.000000 0.000000 
	CHANNELS 6 Xposition Yposition Zposition Zrotation Xrotation Yrotation
	JOINT Spine
	{
		OFFSET -0.000000 8.061080 0.000000 
		CHANNELS 3 Zrotation Xrotation Yrotation
		JOINT Spine1
		{
			OFFSET -0.000000 20.532677 0.000000 
			CHANNELS 3 Zrotation Xrotation Yrotation
			JOINT Neck
			{
				OFFSET -0.000000 22.498795 0.000000 
				CHANNELS 3 Zrotation Xrotation Yrotation
				JOINT Head
				{
					OFFSET -0.000000 15.237408 1.966117 
					CHANNELS 3 Zrotation Xrotation Yrotation
					End Site
					{
						OFFSET -0.000000 19.661171 0.000000 
					}
				}
			}
			JOINT LeftShoulder
			{
				OFFSET 3.894675 16.042269 -0.398189 
				CHANNELS 3 Zrotation Xrotation Yrotation
				JOINT LeftArm
				{
					OFFSET 19.709621 0.000000 0.000000 
					CHANNELS 3 Zrotation Xrotation Yrotation
					JOINT LeftForeArm
					{
						OFFSET 25.566900 0.000000 0.000000 
						CHANNELS 3 Zrotation Xrotation Yrotation
						JOINT LeftHand
						{
							OFFSET 25.401896 0.000000 0.000000 
							CHANNELS 3 Zrotation Xrotation Yrotation
							End Site
							{
								OFFSET 14.745877 0.000000 0.000000 
							}
						}
					}
				}
			}
			JOINT RightShoulder
			{
				OFFSET -3.930777 16.042269 -0.398189 
				CHANNELS 3 Zrotation Xrotation Yrotation
				JOINT RightArm
				{
					OFFSET -19.709621 0.000000 0.000000 
					CHANNELS 3 Zrotation Xrotation Yrotation
					JOINT RightForeArm
					{
						OFFSET -25.566900 0.000000 0.000000 
						CHANNELS 3 Zrotation Xrotation Yrotation
						JOINT RightHand
						{
							OFFSET -25.401896 0.000000 0.000000 
							CHANNELS 3 Zrotation Xrotation Yrotation
							End Site
							{
								OFFSET -14.745877 0.000000 0.000000 
							}
						}
					}
				}
			}
		}
	}
	JOINT LeftUpLeg
	{
		OFFSET 9.830585 0.000000 0.000000 
		CHANNELS 3 Zrotation Xrotation Yrotation
		JOINT LeftLeg
		{
			OFFSET -0.000000 -46.474842 0.000000 
			CHANNELS 3 Zrotation Xrotation Yrotation
			JOINT LeftFoot
			{
				OFFSET -0.000000 -30.290520 0.000000 
				CHANNELS 3 Zrotation Xrotation Yrotation
				JOINT LeftToeBase
				{
					OFFSET -0.000000 -6.389880 14.745877 
					CHANNELS 3 Zrotation Xrotation Yrotation
					End Site
					{
						OFFSET -0.000000 0.000000 3.932234 
					}
				}
			}
		}
	}
	JOINT RightUpLeg
	{
		OFFSET -9.830585 0.000000 0.000000 
		CHANNELS 3 Zrotation Xrotation Yrotation
		JOINT RightLeg
		{
			OFFSET -0.000000 -46.474842 0.000000 
			CHANNELS 3 Zrotation Xrotation Yrotation
			JOINT RightFoot
			{
				OFFSET -0.000000 -30.290520 0.000000 
				CHANNELS 3 Zrotation Xrotation Yrotation
				JOINT RightToeBase
				{
					OFFSET -0.000000 -6.389880 14.745877 
					CHANNELS 3 Zrotation Xrotation Yrotation
					End Site
					{
						OFFSET -0.000000 0.000000 3.932234 
					}
				}
			}
		}
	}
}
MOTION
Frames: 7
Frame Time: 0.010000
-7.175158 84.108238 25.255537 4.981406 7.248324 -41.595852 0.444334 -3.289529 -1.700059 0.727955 -2.263919 -0.554556 2.533087 12.720442 -12.148437 15.624708 6.799348 -14.824517 4.033004 11.875056 1.641776 -70.143074 26.071726 -24.000269 -10.333200 -0.399115 -5.132626 6.351154 -0.538722 5.849358 -7.856299 9.759371 -11.001301 50.261940 56.565815 40.665417 6.020983 -11.222836 9.268666 -3.040845 -11.738082 1.404038 10.049754 -15.319328 4.132239 -0.172517 0.906291 1.505345 -3.889881 7.797697 -7.800204 0.000000 0.000000 0.000000 -9.732183 -6.656184 20.223059 8.593293 18.137409 -0.014792 -6.591095 -9.720925 -3.721913 0.000000 0.000000 0.000000 
-7.009157 84.197586 25.671183 4.881684 7.263119 -42.448597 0.547987 -3.108839 -1.784427 0.542525 -2.001682 -0.588424 2.807250 12.712396 -12.383678 15.572365 6.747859 -14.982558 4.280125 11.684964 1.477204 -69.889252 26.564709 -24.279139 -10.075052 -0.729228 -4.976819 6.141093 -0.861456 5.712830 -7.722168 9.572462 -10.924536 50.402935 56.261063 40.608807 5.914821 -11.198347 9.163773 -2.712586 -11.697529 1.474677 10.101855 -14.947510 4.038768 -0.233189 1.004100 1.798990 -3.585296 7.442699 -7.556336 0.000000 0.000000 0.000000 -9.808976 -6.726598 20.115810 8.581930 18.047327 -0.132020 -6.395717 -9.019930 -3.478175 0.000000 0.000000 0.000000 
-6.831862 84.286720 26.158476 5.398705 7.602121 -43.802341 0.236034 -3.695535 -1.574242 0.952133 -1.880605 -0.509325 2.737703 13.166381 -12.733028 15.371936 6.430902 -15.267834 4.065825 11.722892 1.308215 -70.027664 25.703751 -23.931280 -10.267470 -0.288235 -5.262639 6.263183 -0.439891 5.870218 -8.039436 9.604129 -10.900848 50.165268 56.426842 40.977718 5.646128 -11.474156 8.914998 -2.475277 -11.944607 1.850151 9.856889 -14.818497 4.463971 0.047450 0.458528 2.039431 -3.443216 7.413223 -7.262438 0.000000 0.000000 0.000000 -10.127120 -7.566940 20.167109 8.602596 18.038921 -0.363098 -6.185968 -8.405195 -3.048262 0.000000 0.000000 0.000000 
-6.670566 84.374191 26.579491 5.577370 7.742531 -45.014381 0.150983 -3.697886 -1.494254 0.997931 -1.900054 -0.480731 2.838082 13.249987 -12.851243 15.313707 6.532020 -15.364612 4.152497 11.638908 1.258847 -69.692833 24.344143 -23.303804 -11.701793 0.383606 -6.312917 7.212509 0.135372 6.328968 -7.968007 9.440046 -10.862508 50.376289 56.058483 40.654282 5.958995 -11.376867 9.195734 -3.212757 -11.886151 1.437868 10.009579 -15.025249 4.000261 -0.295842 1.663396 2.619066 -3.014885 6.240626 -6.487171 0.000000 0.000000 0.000000 -10.297950 -8.025589 20.181259 8.543152 18.002363 -0.182787 -5.896946 -7.746440 -2.911249 0.000000 0.000000 0.000000 
-6.518672 84.457886 27.014116 5.699572 7.814664 -46.225449 -0.340028 -3.470683 -1.374662 1.965376 -2.176973 -0.414723 2.224891 13.431693 -12.839229 15.464236 6.693543 -15.549775 3.644396 11.744600 1.194794 -69.640007 25.384064 -23.693022 -10.574485 -0.175483 -5.727317 6.483726 -0.373396 5.866049 -8.394887 9.612332 -11.054589 49.476059 56.232624 41.594334 5.888531 -11.598176 9.000094 -3.219925 -12.101169 1.783309 9.713570 -14.033818 4.562728 0.273753 -0.117591 2.694251 -3.052076 7.049112 -6.340485 0.000000 0.000000 0.000000 -10.466660 -8.371219 20.044083 8.499032 17.905916 -0.142297 -5.724147 -7.038462 -2.625166 0.000000 0.000000 0.000000 
-6.360329 84.549759 27.423071 5.868834 7.933442 -47.498276 0.112169 -3.560012 -1.334594 0.964047 -1.993176 -0.427047 2.791466 13.285567 -12.778045 15.471048 6.972715 -15.387408 4.315188 11.683739 1.432496 -69.358566 24.620329 -23.527950 -11.452188 0.182925 -6.338495 6.929337 -0.082349 6.121306 -7.888430 9.424994 -10.913773 49.472885 56.238316 41.734119 5.564807 -11.644499 8.840756 -2.607586 -12.108676 1.925977 9.765374 -13.887291 4.586758 0.142819 0.207256 2.991083 -2.718641 6.483502 -5.713127 0.000000 0.000000 0.000000 -10.588249 -8.888774 20.059654 8.510370 17.921865 -0.581388 -5.534483 -6.305896 -2.022189 0.000000 0.000000 0.000000 
-6.204138 84.640144 27.801132 6.078344 8.078331 -48.768970 -0.557584 -3.593428 -1.292761 2.367673 -2.040365 -0.380388 1.754005 13.472302 -12.599103 15.709247 7.102099 -15.520717 3.454357 11.645122 1.313978 -69.009476 24.874676 -23.352812 -11.192373 -0.083626 -6.553300 7.094288 -0.340215 6.225095 -8.494914 10.352813 -11.655729 47.580299 55.268505 44.293304 6.142283 -11.392455 8.607125 -2.682250 -11.891737 2.013369 9.701866 -13.563795 4.753225 0.275434 -0.152882 3.352291 -2.524889 6.442691 -5.304861 0.000000 0.000000 0.000000 -10.741565 -9.429335 20.045195 8.622369 17.838825 -0.548566 -5.496664 -5.527764 -1.963537 0.000000 0.000000 0.000000 
